<svg width="43" height="32" viewBox="0 0 43 32" fill="none" xmlns="http://www.w3.org/2000/svg">
<path d="M7.12341 24.1726L13.5445 26.5782V23.1702L7.12341 20.7646V24.1726Z" fill="white"/>
<path d="M14.9491 22.6692V27.6808V31.5899L17.7583 30.4874V16.3545L14.9491 17.4571V22.6692V22.6692Z" fill="white"/>
<path d="M19.163 29.8862L22.0725 28.7836V14.751L19.163 15.8535V29.8862Z" fill="white"/>
<path d="M7.12341 19.2615L13.5445 21.6671V17.4574L7.12341 15.0518V19.2615Z" fill="white"/>
<path d="M7.12341 29.1849L13.5445 31.5905V28.1826L7.12341 25.6768V29.1849Z" fill="white"/>
<path d="M0 26.4779L5.71879 28.5828V25.1749L0 22.9697V26.4779Z" fill="white"/>
<path d="M0 21.4665L5.71879 23.6716V20.1635L0 18.0586V21.4665Z" fill="white"/>
<path d="M0 16.5555L5.71879 18.6604V14.5508L0 12.3457V16.5555Z" fill="white"/>
<path d="M29.0956 0.0166016L1.20398 11.3429L6.62178 13.4478L14.1465 16.3546L30.9016 9.83944C30.9016 9.83944 30.9016 9.83944 31.0019 9.83944L35.2158 8.23571L39.4296 6.63199L41.4362 5.83012L29.0956 0.0166016Z" fill="white"/>
<path d="M40.5332 21.6672L42.6401 20.7651V6.73242L40.5332 7.53429V21.6672Z" fill="white"/>
<path d="M23.4772 28.2823L26.2864 27.1797V13.0469L23.4772 14.1494V28.2823Z" fill="white"/>
<path d="M36.219 23.2706L39.1286 22.168V8.03516L36.219 9.13772V23.2706Z" fill="white"/>
<path d="M27.691 26.5786L30.6006 25.476V11.4434L27.691 12.5459V26.5786Z" fill="white"/>
<path d="M32.0051 24.9747L34.8144 23.8721V9.73926L32.0051 10.8418V24.9747Z" fill="white"/>
</svg>
