<svg width="213" height="43" viewBox="0 0 213 43" fill="none" xmlns="http://www.w3.org/2000/svg">
<g id="Group">
<g id="Group_2">
<path id="Vector" d="M60.4989 14.0326C61.4018 13.331 62.3048 12.8298 63.3081 12.5291C64.3114 12.2284 65.415 12.1282 66.5186 12.1282C67.9233 12.1282 69.3279 12.3287 70.5318 12.8298C71.7358 13.331 72.8394 14.0326 73.7424 14.9347C74.6454 15.8368 75.448 16.9394 75.9496 18.2424C76.4513 19.5455 76.7523 20.9487 76.7523 22.5524C76.7523 24.0559 76.4513 25.359 75.9496 26.662C75.448 27.965 74.6454 29.0676 73.7424 29.9697C72.7391 30.972 71.6355 31.6737 70.2308 32.2751C68.7259 32.7762 67.221 33.0769 65.5153 33.0769C63.4084 33.0769 61.6025 32.7762 60.0975 32.0746C58.5926 31.373 57.3886 30.4709 56.586 29.4685C55.683 28.366 55.0811 27.1632 54.6797 25.8601C54.2784 24.5571 54.0778 23.2541 54.0778 22.0513V2.70629C54.0778 1.90443 54.3787 1.2028 54.8804 0.701632C55.382 0.200466 56.0844 0 57.0877 0C58.1913 0 58.9939 0.200466 59.4956 0.701632C59.9972 1.2028 60.1979 1.8042 60.1979 2.70629V13.8322L60.4989 14.0326ZM70.8328 22.5524C70.8328 21.8508 70.7325 21.1492 70.4315 20.4475C70.2308 19.7459 69.8295 19.1445 69.4282 18.6434C69.0269 18.1422 68.4249 17.7413 67.8229 17.3403C67.2209 17.0396 66.5186 16.8392 65.716 16.8392C64.9134 16.8392 64.2111 17.0396 63.5088 17.3403C62.9068 17.641 62.3048 18.042 61.8031 18.6434C61.3015 19.1445 61.0005 19.7459 60.6995 20.4475C60.3985 21.1492 60.2982 21.7506 60.2982 22.5524C60.2982 24.1562 60.6995 25.5594 61.6025 26.7622C62.4051 27.8648 63.7094 28.4662 65.5153 28.4662C66.318 28.4662 67.0203 28.366 67.7226 28.0653C68.4249 27.7646 68.9266 27.3636 69.4282 26.8625C69.8295 26.3613 70.2308 25.7599 70.4315 25.0583C70.7325 24.0559 70.8328 23.3543 70.8328 22.5524Z" fill="white"/>
<path id="Vector_2" d="M90.9991 33.0773C89.1932 33.0773 87.6882 32.7766 86.2836 32.2754C84.879 31.7742 83.6751 31.0726 82.6718 30.0703C81.6685 29.1682 80.9661 27.9654 80.4645 26.7626C79.9628 25.4596 79.6619 24.0563 79.6619 22.5528C79.6619 21.0493 79.9628 19.646 80.4645 18.343C80.9661 17.04 81.7688 15.9374 82.7721 15.0353C83.7754 14.1332 84.9793 13.3314 86.2836 12.8302C87.5879 12.329 89.1932 12.0283 90.8988 12.0283C92.6044 12.0283 94.1093 12.329 95.514 12.8302C96.9186 13.3314 98.0222 14.1332 99.0255 15.0353C100.029 15.9374 100.731 17.1402 101.233 18.343C101.734 19.646 102.035 21.0493 102.035 22.5528C102.035 24.0563 101.734 25.4596 101.233 26.7626C100.731 28.0656 99.9285 29.1682 98.9252 30.0703C97.9219 30.9724 96.8182 31.7742 95.4136 32.2754C94.1093 32.8768 92.6044 33.0773 90.9991 33.0773ZM90.9991 16.8395C90.1965 16.8395 89.4942 16.9397 88.7919 17.2404C88.1899 17.5411 87.5879 17.9421 87.1866 18.4432C86.7853 18.9444 86.384 19.5458 86.1833 20.2474C85.9826 20.9491 85.782 21.6507 85.782 22.4526C85.782 24.1565 86.1833 25.5598 87.0863 26.6624C87.9892 27.7649 89.2935 28.2661 90.9991 28.2661C91.8018 28.2661 92.5041 28.1658 93.2064 27.8651C93.9087 27.5645 94.4103 27.1635 94.912 26.6624C95.3133 26.1612 95.7146 25.5598 95.9153 24.8582C96.1159 24.1565 96.3166 23.3547 96.3166 22.5528C96.3166 21.7509 96.2163 21.0493 95.9153 20.3477C95.7146 19.646 95.3133 19.0446 94.8117 18.5435C94.31 18.0423 93.8084 17.6414 93.106 17.3407C92.5041 16.9397 91.8018 16.8395 90.9991 16.8395Z" fill="white"/>
<path id="Vector_3" d="M116.383 33.0773C114.577 33.0773 113.072 32.7766 111.667 32.2754C110.262 31.7742 109.058 30.9724 108.156 30.0703C107.152 29.1682 106.45 27.9654 105.948 26.7626C105.447 25.4596 105.146 24.0563 105.146 22.5528C105.146 21.0493 105.447 19.646 105.948 18.343C106.45 17.04 107.253 15.9374 108.256 15.0353C109.259 14.1332 110.463 13.3314 111.767 12.8302C113.072 12.329 114.677 12.0283 116.383 12.0283C118.088 12.0283 119.593 12.329 120.998 12.8302C122.402 13.3314 123.506 14.1332 124.509 15.0353C125.513 15.9374 126.215 17.1402 126.717 18.343C127.218 19.646 127.519 21.0493 127.519 22.5528C127.519 24.0563 127.218 25.4596 126.717 26.7626C126.215 28.0656 125.412 29.1682 124.409 30.0703C123.406 30.9724 122.302 31.7742 120.897 32.2754C119.593 32.8768 117.988 33.0773 116.383 33.0773ZM116.383 16.8395C115.58 16.8395 114.878 16.9397 114.175 17.2404C113.573 17.5411 112.971 17.9421 112.57 18.4432C112.169 18.9444 111.767 19.5458 111.567 20.2474C111.366 20.9491 111.165 21.6507 111.165 22.4526C111.165 24.1565 111.567 25.5598 112.47 26.6624C113.373 27.7649 114.677 28.2661 116.383 28.2661C117.185 28.2661 117.887 28.1658 118.59 27.8651C119.292 27.5645 119.794 27.1635 120.295 26.6624C120.697 26.1612 121.098 25.5598 121.299 24.8582C121.499 24.1565 121.7 23.3547 121.7 22.5528C121.7 21.7509 121.6 21.0493 121.299 20.3477C121.098 19.646 120.697 19.0446 120.195 18.5435C119.693 18.0423 119.192 17.6414 118.489 17.3407C117.988 16.9397 117.185 16.8395 116.383 16.8395Z" fill="white"/>
<path id="Vector_4" d="M134.342 0C135.345 0 136.147 0.200466 136.649 0.701632C137.151 1.2028 137.452 1.8042 137.452 2.60606V19.4452H138.455C139.258 19.4452 139.96 19.345 140.361 19.0443C140.763 18.7436 141.264 18.2424 141.766 17.5408L144.375 13.6317C144.876 12.9301 145.378 12.5291 146.08 12.3287C146.682 12.1282 147.485 12.1282 148.488 12.2284C149.491 12.4289 149.993 12.8298 150.294 13.4312C150.595 14.0326 150.394 14.8345 149.993 15.5361L148.187 18.2424C147.685 19.0443 147.184 19.7459 146.582 20.3473C145.98 20.9487 145.378 21.3497 144.675 21.5501V21.7506C145.478 22.0513 146.08 22.4522 146.582 22.8531C147.083 23.2541 147.585 23.9557 148.187 24.8578L150.896 29.2681C151.297 29.9697 151.498 30.7716 151.197 31.4732C150.896 32.1748 150.495 32.676 149.692 32.7762C148.689 32.9767 147.886 32.9767 147.184 32.7762C146.481 32.5758 145.879 32.0746 145.478 31.373L141.967 26.0606C141.666 25.6597 141.465 25.359 141.264 25.0583C141.064 24.7576 140.763 24.6573 140.562 24.4569C140.261 24.3566 140.06 24.2564 139.759 24.1562C139.458 24.1562 139.057 24.0559 138.656 24.0559H137.452V30.1702C137.452 30.972 137.151 31.5734 136.649 32.0746C136.147 32.4755 135.345 32.7762 134.241 32.7762C133.238 32.7762 132.435 32.5758 131.934 32.0746C131.432 31.5734 131.231 30.972 131.231 30.1702V2.60606C131.231 1.8042 131.532 1.2028 132.034 0.701632C132.636 0.300699 133.338 0 134.342 0Z" fill="white"/>
<path id="Vector_5" d="M161.531 5.91414C161.531 6.81624 161.23 7.6181 160.628 8.31973C160.026 9.02136 159.223 9.32206 158.22 9.32206C157.217 9.32206 156.314 9.02136 155.812 8.31973C155.31 7.6181 154.909 6.81624 154.909 5.91414C154.909 4.91181 155.21 4.21017 155.912 3.50854C156.615 2.80691 157.317 2.60645 158.22 2.60645C159.223 2.60645 160.026 2.90714 160.628 3.60878C161.23 4.21017 161.531 5.01204 161.531 5.91414ZM161.13 30.1705C161.13 31.0726 160.929 31.674 160.427 32.1752C159.926 32.6764 159.123 32.8768 158.12 32.8768C157.016 32.8768 156.213 32.5761 155.712 32.075C155.21 31.5738 155.009 30.8722 155.009 30.1705V15.0353C155.009 14.2335 155.31 13.6321 155.812 13.1309C156.314 12.6298 157.116 12.3291 158.12 12.3291C159.123 12.3291 159.926 12.5295 160.427 13.0307C160.929 13.5319 161.13 14.1333 161.13 15.0353V30.1705V30.1705Z" fill="white"/>
<path id="Vector_6" d="M180.293 21.2491C180.293 19.7456 179.992 18.6431 179.49 17.9414C178.988 17.2398 178.085 16.9391 176.982 16.9391C175.477 16.9391 174.373 17.5405 173.671 18.7433C172.968 19.9461 172.567 21.4496 172.567 23.354V30.2701C172.567 31.9741 171.564 32.8762 169.457 32.8762C168.454 32.8762 167.651 32.6757 167.149 32.1745C166.648 31.6734 166.447 31.072 166.447 30.2701V15.3354C166.447 15.0347 166.447 14.6338 166.547 14.3331C166.648 14.0324 166.748 13.6314 166.949 13.3307C167.149 13.03 167.45 12.8296 167.852 12.6291C168.253 12.4286 168.654 12.3284 169.256 12.3284C169.959 12.3284 170.561 12.5289 170.962 12.8296C171.363 13.1303 171.564 13.5312 171.664 13.9321L171.965 15.1349H172.166C173.169 13.9321 174.172 13.1303 175.376 12.7293C176.58 12.3284 177.784 12.1279 178.888 12.1279C180.192 12.1279 181.296 12.3284 182.199 12.7293C183.102 13.1303 183.904 13.6314 184.506 14.3331C185.108 15.0347 185.61 15.8366 185.911 16.8389C186.212 17.8412 186.312 18.8435 186.312 19.9461V30.2701C186.312 31.9741 185.309 32.8762 183.202 32.8762C182.199 32.8762 181.396 32.6757 180.895 32.1745C180.393 31.6734 180.192 31.072 180.192 30.2701V21.2491H180.293Z" fill="white"/>
<path id="Vector_7" d="M213 29.569C213 31.3732 212.799 33.0772 212.398 34.6809C211.997 36.2846 211.395 37.6879 210.391 38.9909C209.388 40.1937 208.084 41.1961 206.479 41.9979C204.873 42.6996 202.766 43.1005 200.258 43.1005C199.255 43.1005 198.252 43.0003 197.148 42.9C196.044 42.7998 195.041 42.4991 194.138 42.1984C193.235 41.8977 192.432 41.4968 191.83 40.9956C191.229 40.4944 190.928 39.9933 190.928 39.2916C190.928 38.59 191.128 37.8884 191.63 37.287C192.031 36.6856 192.633 36.4851 193.235 36.4851C193.436 36.4851 193.636 36.4851 193.937 36.5853C194.941 36.9863 195.944 37.3872 197.048 37.6879C198.151 37.9886 199.355 38.0888 200.559 38.0888C202.465 38.0888 203.97 37.5877 205.174 36.4851C206.378 35.3826 206.98 33.8791 206.98 31.8744V30.9723L206.78 30.8721C205.977 31.5737 204.974 32.0749 203.87 32.3756C202.766 32.6763 201.663 32.7765 200.559 32.7765C199.054 32.7765 197.75 32.576 196.446 32.0749C195.141 31.6739 194.138 30.9723 193.135 30.1704C192.232 29.3686 191.529 28.3662 190.928 27.0632C190.426 25.8604 190.125 24.3569 190.125 22.7532C190.125 21.2497 190.426 19.8464 190.928 18.5434C191.429 17.2404 192.232 16.0376 193.235 15.0352C194.238 14.0329 195.442 13.231 196.747 12.6296C198.051 12.0282 199.656 11.7275 201.362 11.7275C203.469 11.7275 205.275 12.0282 206.679 12.7299C208.184 13.4315 209.288 14.2334 210.191 15.3359C211.094 16.4385 211.696 17.6413 212.197 19.0446C212.599 20.4478 212.799 21.7508 212.799 23.1541V29.569H213ZM201.562 16.8394C200.76 16.8394 200.058 16.9397 199.355 17.2404C198.753 17.5411 198.151 17.942 197.65 18.4432C197.148 18.9443 196.847 19.5457 196.546 20.3476C196.245 21.1495 196.145 21.8511 196.145 22.6529C196.145 24.2567 196.646 25.5597 197.549 26.6623C198.452 27.7648 199.757 28.266 201.462 28.266C202.265 28.266 203.067 28.0655 203.669 27.7648C204.271 27.4641 204.873 27.0632 205.275 26.562C205.676 26.0609 206.077 25.4595 206.278 24.7578C206.479 24.0562 206.579 23.3546 206.579 22.6529C206.579 20.949 206.178 19.5457 205.275 18.4432C204.673 17.4408 203.368 16.8394 201.562 16.8394Z" fill="white"/>
</g>
<g id="Group_3">
<path id="Vector_8" d="M134.141 41.9981C133.539 41.6974 133.138 41.2965 132.837 40.6951C132.536 40.0937 132.335 39.4923 132.335 38.7907C132.335 38.089 132.536 37.4876 132.837 36.8862C133.138 36.2848 133.539 35.8839 134.141 35.5832C134.743 35.2825 135.345 35.082 136.047 35.082C136.749 35.082 137.351 35.2825 137.953 35.5832C138.555 35.8839 138.957 36.2848 139.258 36.8862C139.559 37.4876 139.759 38.089 139.759 38.7907C139.759 39.4923 139.559 40.0937 139.258 40.6951C138.957 41.2965 138.555 41.6974 137.953 41.9981C137.351 42.2988 136.749 42.4993 136.047 42.4993C135.245 42.4993 134.643 42.2988 134.141 41.9981ZM137.05 40.7953C137.351 40.5949 137.652 40.2942 137.853 39.9935C138.054 39.5925 138.154 39.2918 138.154 38.7907C138.154 38.2895 138.054 37.9888 137.853 37.5879C137.652 37.1869 137.452 36.9865 137.05 36.786C136.749 36.5855 136.348 36.4853 135.947 36.4853C135.546 36.4853 135.144 36.5855 134.843 36.786C134.542 36.9865 134.241 37.2872 134.141 37.5879C134.041 37.8886 133.84 38.2895 133.84 38.7907C133.84 39.2918 133.94 39.5925 134.141 39.9935C134.342 40.3944 134.542 40.5949 134.843 40.7953C135.144 40.9958 135.546 41.096 135.947 41.096C136.348 41.096 136.749 40.9958 137.05 40.7953Z" fill="white"/>
<path id="Vector_9" d="M144.274 35.2822L147.184 39.9932V35.2822H148.689V42.3988H147.083L144.174 37.6878V42.3988H142.669V35.2822H144.274Z" fill="white"/>
<path id="Vector_10" d="M155.812 38.4902V39.693H151.799V38.4902H155.812Z" fill="white"/>
<path id="Vector_11" d="M160.427 35.2822V41.0957H163.638V42.3988H158.822V35.2822H160.427V35.2822Z" fill="white"/>
<path id="Vector_12" d="M168.052 35.2822V42.3988H166.547V35.2822H168.052Z" fill="white"/>
<path id="Vector_13" d="M172.969 35.2822L175.878 39.9932V35.2822H177.383V42.3988H175.778L172.868 37.6878V42.3988H171.363V35.2822H172.969Z" fill="white"/>
<path id="Vector_14" d="M185.51 35.2822V36.5853H182.199V38.0888H184.807V39.3918H182.199V41.0957H185.61V42.3988H180.594V35.2822H185.51V35.2822Z" fill="white"/>
</g>
<g id="Group_4">
<path id="Vector_15" d="M7.12341 31.1726L13.5445 33.5782V30.1702L7.12341 27.7646V31.1726Z" fill="white"/>
<path id="Vector_16" d="M14.9491 29.6692V34.6808V38.5899L17.7583 37.4874V23.3545L14.9491 24.4571V29.6692V29.6692Z" fill="white"/>
<path id="Vector_17" d="M19.163 36.8862L22.0725 35.7836V21.751L19.163 22.8535V36.8862Z" fill="white"/>
<path id="Vector_18" d="M7.12341 26.2615L13.5445 28.6671V24.4574L7.12341 22.0518V26.2615Z" fill="white"/>
<path id="Vector_19" d="M7.12341 36.1849L13.5445 38.5905V35.1826L7.12341 32.6768V36.1849Z" fill="white"/>
<path id="Vector_20" d="M0 33.4779L5.71879 35.5828V32.1749L0 29.9697V33.4779Z" fill="white"/>
<path id="Vector_21" d="M0 28.4665L5.71879 30.6716V27.1635L0 25.0586V28.4665Z" fill="white"/>
<path id="Vector_22" d="M0 23.5555L5.71879 25.6604V21.5508L0 19.3457V23.5555Z" fill="white"/>
<path id="Vector_23" d="M29.0956 7.0166L1.20398 18.3429L6.62178 20.4478L14.1465 23.3546L30.9016 16.8394C30.9016 16.8394 30.9016 16.8394 31.0019 16.8394L35.2158 15.2357L39.4296 13.632L41.4362 12.8301L29.0956 7.0166Z" fill="white"/>
<path id="Vector_24" d="M40.5332 28.6672L42.6401 27.7651V13.7324L40.5332 14.5343V28.6672Z" fill="white"/>
<path id="Vector_25" d="M23.4772 35.2823L26.2864 34.1797V20.0469L23.4772 21.1494V35.2823Z" fill="white"/>
<path id="Vector_26" d="M36.219 30.2706L39.1286 29.168V15.0352L36.219 16.1377V30.2706Z" fill="white"/>
<path id="Vector_27" d="M27.691 33.5786L30.6006 32.476V18.4434L27.691 19.5459V33.5786Z" fill="white"/>
<path id="Vector_28" d="M32.0051 31.9747L34.8144 30.8721V16.7393L32.0051 17.8418V31.9747Z" fill="white"/>
</g>
<path id="Vector_29" d="M39.2289 4.91175L22.9755 12.4292L27.39 15.6367L44.0447 7.91874L50.8671 12.0283V1.30336L33.1088 1.20312L39.2289 4.91175Z" fill="white"/>
<g id="Group_5">
<path id="Vector_30" d="M127.72 40.0928H56.4856V40.5939H127.72V40.0928Z" fill="white"/>
</g>
</g>
</svg>
